<svg width="29" height="29" viewBox="0 0 29 29" fill="none" xmlns="http://www.w3.org/2000/svg">
<g id="Icons_1" clip-path="url(#clip0_195_858)">
<path id="Vector" d="M26.3242 22.5474C26.2519 22.4749 26.2519 22.4024 26.1796 22.3299L19.8155 16.0224L28.7107 6.59744C29 6.30744 29 5.79994 28.7107 5.50994L23.4314 0.217439C23.1421 -0.072561 22.6359 -0.072561 22.3466 0.217439L13.0898 9.35244L4.48379 0.797439C4.19451 0.507439 3.68828 0.507439 3.399 0.797439L0.216958 3.98744C0.0723192 4.13244 0 4.27744 0 4.49494C0 4.71244 0.0723192 4.92994 0.216958 5.07494L8.82294 13.5574L0.216958 22.4024C-0.0723192 22.6924 -0.0723192 23.1999 0.216958 23.4899L5.49626 28.7824C5.6409 28.9274 5.85786 28.9999 6.00249 28.9999C6.21945 28.9999 6.36409 28.9274 6.50873 28.7824L15.3317 20.0824L21.9127 26.6074C21.985 26.6799 22.0574 26.7524 22.202 26.7524L27.8429 28.9274C27.9152 28.9274 28.0599 28.9999 28.1322 28.9999C28.3491 28.9999 28.5661 28.9274 28.7107 28.7824C28.9277 28.5649 29 28.2024 28.8554 27.9124L26.3242 22.5474ZM24.0823 23.7799L5.71322 5.43744L6.29177 4.78494L12.2219 10.6574C12.2219 10.7299 12.2943 10.7299 12.2943 10.8024L18.3691 16.8199C18.4414 16.8924 18.4414 16.8924 18.5137 16.8924L24.7332 23.0549L24.0823 23.7799ZM22.9252 1.88494L27.1197 6.08994L26.1796 7.10494L24.5885 5.50994C24.3716 5.29244 24.0823 5.29244 23.8653 5.50994C23.6484 5.72744 23.6484 6.01744 23.8653 6.23494L25.4564 7.82994L24.4439 8.91744L22.8529 7.32244C22.6359 7.10494 22.3466 7.10494 22.1297 7.32244C21.9127 7.53994 21.9127 7.82994 22.1297 8.04744L23.793 9.71494L22.7806 10.8024L20.9726 9.13494C20.7556 8.91744 20.4663 8.91744 20.2494 9.13494C20.0324 9.35244 20.0324 9.64244 20.2494 9.85994L21.9127 11.5274L20.9002 12.6149L19.1646 10.8749C18.9476 10.6574 18.6584 10.6574 18.4414 10.8749C18.2244 11.0924 18.2244 11.3824 18.4414 11.5999L20.1771 13.3399L18.2968 15.2974L13.813 10.8749L22.9252 1.88494ZM3.90524 2.46494L5.56858 4.13244L3.61596 6.23494L1.8803 4.49494L3.90524 2.46494ZM6.00249 27.1149L1.80798 22.9099L10.197 14.2824L14.6085 18.6324L11.7157 21.4599L10.1247 19.8649C9.90773 19.6474 9.61845 19.6474 9.4015 19.8649C9.18454 20.0824 9.18454 20.3724 9.4015 20.5899L10.9925 22.1849L9.90773 23.2724L8.38903 21.7499C8.17207 21.5324 7.88279 21.5324 7.66584 21.7499C7.44888 21.9674 7.44888 22.2574 7.66584 22.4749L9.18454 23.9974L8.09975 25.0849L6.58105 23.5624C6.36409 23.3449 6.07481 23.3449 5.85786 23.5624C5.6409 23.7799 5.6409 24.0699 5.85786 24.2874L7.37656 25.8099L6.00249 27.1149ZM4.33915 6.88744L5.06234 6.16244L23.4314 24.4324L22.7082 25.0849L4.33915 6.88744ZM23.6484 25.6649L25.3117 24.0699L26.6135 26.8249L23.6484 25.6649Z" fill="#D3D2D2"/>
</g>
<defs>
<clipPath id="clip0_195_858">
<rect width="29" height="29" fill="white"/>
</clipPath>
</defs>
</svg>
