<svg width="97" height="60" viewBox="0 0 97 60" fill="none" xmlns="http://www.w3.org/2000/svg">
<g id="Logotype">
<g id="Group">
<path id="Vector" d="M50.3858 29.2918L47.6758 20.9506H45.6277V29.2918H43.4534V10.2172H47.6443C49.1884 10.2172 50.3227 10.6578 51.0475 11.5706C51.7722 12.452 52.1503 13.8369 52.1503 15.6626C52.1503 16.7642 51.9928 17.74 51.6462 18.5584C51.3311 19.4083 50.6693 20.0378 49.6925 20.5099L52.5915 29.2918H50.3858ZM50.0076 15.6626C50.0076 15.1589 49.9761 14.6868 49.9131 14.2776C49.8501 13.8684 49.6925 13.4907 49.5035 13.2074C49.2829 12.8927 48.9993 12.6723 48.6527 12.5149C48.3061 12.3576 47.8649 12.2631 47.2977 12.2631H45.6592V18.9676H47.4868C47.991 18.9676 48.4006 18.9046 48.7157 18.7473C49.0308 18.5899 49.3144 18.3695 49.5035 18.0863C49.6925 17.803 49.8186 17.4567 49.9131 17.0475C49.9761 16.5754 50.0076 16.1347 50.0076 15.6626Z" fill="#666666"/>
<path id="Vector_2" d="M57.6332 29.2918V10.2172H59.8074V29.2604L57.6332 29.2918Z" fill="#666666"/>
<path id="Vector_3" d="M69.7017 10.0599C71.1827 10.0599 72.254 10.4691 72.9158 11.256C73.5775 12.0744 73.9241 13.1131 73.9241 14.4036L71.7499 14.7813C71.7814 13.9315 71.6238 13.2705 71.3087 12.7983C70.9936 12.2947 70.4579 12.0744 69.6702 12.0744C69.229 12.0744 68.8824 12.1688 68.5988 12.3891C68.3152 12.578 68.0946 12.8298 67.9686 13.1446C67.811 13.4593 67.7165 13.7741 67.6535 14.1518C67.5905 14.5295 67.559 14.8758 67.559 15.1905V24.7908C67.559 25.0741 67.5905 25.3574 67.6535 25.6721C67.7165 25.9869 67.811 26.2702 67.9686 26.5535C68.1262 26.8053 68.3467 27.0571 68.5988 27.2145C68.8509 27.4033 69.229 27.4978 69.6387 27.4978C70.3634 27.4978 70.8676 27.2774 71.2142 26.8368C71.5608 26.3961 71.7184 25.7036 71.7499 24.7593L73.9556 25.137C73.9241 26.4905 73.546 27.5607 72.8527 28.3476C72.1595 29.1031 71.0881 29.5123 69.7017 29.5123C68.2522 29.5123 67.1808 29.1031 66.4561 28.3162C65.7313 27.4978 65.3847 26.3961 65.3847 24.9167V15.4423C65.3847 14.7813 65.4478 14.1203 65.5738 13.4593C65.6998 12.7983 65.9204 12.2317 66.204 11.7281C66.5191 11.2245 66.9603 10.8153 67.5274 10.5005C68.0946 10.2173 68.8194 10.0599 69.7017 10.0599Z" fill="#666666"/>
<path id="Vector_4" d="M87.4106 24.1612C87.4106 25.8609 87.0639 27.1829 86.4022 28.0957C85.7405 29.0085 84.6061 29.4807 82.9991 29.4807C81.4235 29.4807 80.3207 29.04 79.6274 28.1901C78.9657 27.3403 78.6191 26.2071 78.6191 24.7907V15.4107C78.6191 14.7497 78.6821 14.0887 78.8082 13.4277C78.9342 12.7982 79.1548 12.2316 79.4699 11.728C79.785 11.2244 80.2261 10.8152 80.7933 10.5319C81.3605 10.2172 82.0853 10.0912 82.9991 10.0912C83.9444 10.0912 84.7006 10.2172 85.2993 10.5004C85.8665 10.7523 86.3077 11.13 86.6228 11.6021C86.9379 12.0743 87.127 12.6408 87.253 13.2704C87.3475 13.8999 87.4106 14.6238 87.4106 15.3793V24.1612ZM85.2678 15.0016C85.2678 14.6868 85.2363 14.3406 85.2048 13.9943C85.1733 13.6481 85.0788 13.3333 84.9212 13.05C84.7637 12.7667 84.5431 12.5464 84.2595 12.3261C83.9444 12.1372 83.5663 12.0428 83.0621 12.0428C82.5264 12.0428 82.0853 12.1687 81.8017 12.452C81.5181 12.7038 81.2975 13.0185 81.14 13.3963C80.9824 13.774 80.9194 14.1517 80.8879 14.5609C80.8564 14.9701 80.8564 15.3163 80.8564 15.5996V24.8222C80.8564 25.1055 80.8879 25.3888 80.9509 25.7035C81.0139 26.0183 81.1084 26.3016 81.266 26.5849C81.4235 26.8681 81.6441 27.0885 81.9277 27.2459C82.2113 27.4032 82.5894 27.4977 83.0306 27.4977C83.4717 27.4977 83.8499 27.4032 84.165 27.2144C84.4486 27.0255 84.7006 26.8052 84.8582 26.5219C85.0157 26.2386 85.1418 25.9238 85.2048 25.5461C85.2678 25.1684 85.2993 24.8222 85.2993 24.413V15.0016H85.2678Z" fill="#666666"/>
</g>
<g id="Group_2">
<path id="Vector_5" d="M45.9113 38.7664C46.5415 38.7664 47.0457 38.8923 47.4238 39.1126C47.8019 39.3644 48.054 39.7421 48.1801 40.3087C48.3061 40.7179 48.3376 41.2845 48.3691 41.9769C48.3691 42.7009 48.3691 43.5193 48.3691 44.4636C48.3691 45.4079 48.3691 46.2263 48.3691 46.9187C48.3691 47.6112 48.3061 48.1463 48.1801 48.524C47.991 49.185 47.6759 49.6257 47.2347 49.8775C46.8251 50.1293 46.3209 50.2552 45.7852 50.2552H43.2644V38.7664H45.9113ZM46.6991 41.7566C46.6991 41.3474 46.636 41.0012 46.4785 40.7808C46.3209 40.529 46.0373 40.4346 45.6277 40.4346H44.903V48.587H45.6277C46.0373 48.587 46.3209 48.4611 46.4785 48.2407C46.636 48.0204 46.6991 47.6742 46.6991 47.2335V41.7566Z" fill="#666666"/>
<path id="Vector_6" d="M51.8037 50.2552V38.7664H56.5618V40.4346H53.4738V43.5822H56.1837V45.282H53.4738V48.587H56.5618V50.2552H51.8037Z" fill="#666666"/>
<path id="Vector_7" d="M64.5656 46.9817C64.5656 47.4853 64.5341 47.9575 64.4396 48.3666C64.3451 48.7758 64.219 49.1221 63.9984 49.4368C63.7779 49.7201 63.5258 49.9405 63.1792 50.1293C62.8325 50.2867 62.4229 50.3811 61.9187 50.3811C61.4461 50.3811 61.068 50.3182 60.7213 50.1608C60.3747 50.0034 60.1226 49.8146 59.9021 49.5628C59.6815 49.3109 59.5239 49.0277 59.4294 48.6814C59.3349 48.3352 59.2719 47.9889 59.2719 47.5797L60.9419 47.2335C60.9734 47.6742 61.0364 48.0204 61.1625 48.2722C61.2885 48.5555 61.5406 48.6814 61.9502 48.6814C62.1708 48.6814 62.3599 48.6499 62.4859 48.5555C62.612 48.4611 62.7065 48.3352 62.7695 48.1778C62.8325 48.0204 62.8641 47.8316 62.8956 47.6427C62.8956 47.4538 62.9271 47.2335 62.9271 47.0132C62.9271 46.7299 62.9271 46.5095 62.8956 46.3207C62.8641 46.1318 62.801 45.9744 62.7065 45.8485C62.612 45.7226 62.4859 45.5967 62.3284 45.5023C62.1708 45.4079 61.9502 45.282 61.6982 45.1561C61.194 44.9357 60.7844 44.6839 60.4693 44.4321C60.1541 44.1803 59.9021 43.9285 59.7445 43.6767C59.587 43.3934 59.4609 43.1101 59.4294 42.8268C59.3664 42.5121 59.3664 42.1973 59.3664 41.8196C59.3664 41.3474 59.4294 40.9382 59.5239 40.5605C59.6185 40.1828 59.776 39.8366 59.9966 39.5533C60.2172 39.27 60.5008 39.0497 60.8159 38.8923C61.1625 38.7349 61.5406 38.6719 62.0133 38.6719C62.5174 38.6719 62.9271 38.7664 63.2737 38.9237C63.5888 39.0811 63.8724 39.3015 64.0615 39.5848C64.2505 39.8366 64.4081 40.1513 64.4711 40.4661C64.5341 40.7809 64.5971 41.0956 64.5971 41.3789L62.9271 41.7881C62.9271 41.3789 62.8641 41.0327 62.738 40.7494C62.612 40.4976 62.3599 40.3402 61.9502 40.3402C61.7612 40.3402 61.5721 40.3717 61.4776 40.4661C61.3515 40.5605 61.257 40.6549 61.194 40.8123C61.131 40.9697 61.068 41.0956 61.068 41.2845C61.0364 41.4419 61.0364 41.5992 61.0364 41.7881C61.0364 41.977 61.0364 42.1658 61.068 42.3232C61.0995 42.4806 61.1625 42.6065 61.257 42.7324C61.3515 42.8583 61.5091 42.9842 61.6982 43.1416C61.8872 43.2675 62.1708 43.4249 62.4859 43.5508C62.9586 43.7396 63.3367 43.96 63.6203 44.1803C63.9039 44.4006 64.1245 44.6524 64.2505 44.9357C64.4081 45.219 64.5026 45.5023 64.5341 45.8485C64.5656 46.1633 64.5656 46.541 64.5656 46.9817Z" fill="#666666"/>
<path id="Vector_8" d="M67.7482 50.2552V38.7664H69.4183V50.2552H67.7482Z" fill="#666666"/>
<path id="Vector_9" d="M75.4684 50.3496C74.5861 50.3496 73.9243 50.0978 73.5147 49.6257C73.1051 49.1535 72.8845 48.4296 72.8845 47.5168V41.7881C72.8845 41.3474 72.916 40.9382 73.0105 40.5605C73.1051 40.1828 73.2626 39.8365 73.4517 39.5532C73.6723 39.27 73.9243 39.0496 74.271 38.8608C74.5861 38.7034 74.9957 38.6089 75.4684 38.6089C76.3507 38.6089 76.9809 38.8608 77.3905 39.3329C77.8001 39.8051 78.0207 40.4346 78.0207 41.2215V41.3474L76.3822 41.6936C76.3822 41.2844 76.3191 40.9382 76.1616 40.6549C76.004 40.4031 75.7835 40.2457 75.4684 40.2457C75.2793 40.2457 75.1217 40.2772 74.9957 40.3716C74.8697 40.4661 74.7751 40.5605 74.7121 40.7179C74.6491 40.8438 74.5861 41.0012 74.5861 41.1585C74.5861 41.3159 74.5546 41.4733 74.5546 41.5992V47.4538C74.5546 47.5797 74.5861 47.7056 74.5861 47.8C74.6176 47.9889 74.6806 48.1778 74.8066 48.3351C74.9327 48.4925 75.1217 48.5869 75.4053 48.5869C75.6889 48.5869 75.941 48.4925 76.0986 48.3351C76.2876 48.1778 76.3507 47.9574 76.3507 47.6427V45.3764H75.3738V43.834H78.0207V47.4853C78.0207 48.3981 77.7686 49.0591 77.296 49.5312C76.8548 50.1293 76.2561 50.3496 75.4684 50.3496Z" fill="#666666"/>
<path id="Vector_10" d="M82.9363 43.5508V50.2552H81.2662V38.7664H82.7472L84.0391 42.1973C84.1337 42.4806 84.2597 42.7639 84.3542 43.0471C84.4488 43.3304 84.5748 43.6137 84.6693 43.897L85.205 45.4708C85.2365 45.4708 85.2365 45.4708 85.2365 45.4708H85.268V38.7978H86.9066V50.2867H85.4571L84.1652 46.8873C83.9446 46.3207 83.7555 45.7856 83.5665 45.2505C83.3774 44.7154 83.1568 44.1803 82.9678 43.6137L82.9363 43.5508Z" fill="#666666"/>
</g>
<g id="Group_3">
<path id="Vector_11" d="M87.5998 32.9117H42.8863V34.8003H87.5998V32.9117Z" fill="#666666"/>
</g>
<g id="Group_4">
<g id="Group_5">
<path id="Vector_12" d="M26.8789 20.038C25.8706 18.9048 24.3581 18.2438 22.8456 18.2438C22.4044 18.2438 21.9633 18.3068 21.5537 18.4012C19.4425 18.9678 18.182 20.4157 17.6464 22.9023C17.2997 24.4132 16.8901 25.5778 16.2914 26.4592C14.7159 28.9458 12.1005 29.3865 9.70569 29.4809C8.85491 29.5124 8.35074 29.9216 8.35074 30.614C8.35074 31.338 8.94944 31.7787 9.80022 31.7157C9.98929 31.7157 10.1784 31.6842 10.3989 31.6842C10.9031 31.6528 11.4388 31.6213 11.9745 31.5269C14.4953 31.0232 16.3229 30.0475 17.6779 28.4107C18.9698 26.8684 19.537 25.0742 20.0096 22.8394C20.3247 21.36 21.3646 20.5101 22.8456 20.5101C23.0031 20.5101 23.1922 20.5101 23.3813 20.5416C24.7992 20.7305 25.9336 22.084 25.8706 23.5633C25.8076 24.728 25.7131 25.7352 25.4925 26.648C24.8938 29.3235 23.8539 31.3065 22.2154 32.8803C20.2302 34.7689 17.8354 35.6188 15.5036 36.2798C14.6528 36.5316 13.7706 36.7519 12.9198 36.9723C12.069 37.1926 11.1867 37.4129 10.3359 37.6647C9.98929 37.7592 9.70569 37.9795 9.57965 38.2628C9.45361 38.5146 9.4221 38.7979 9.51663 39.0812C9.70569 39.7107 10.3359 39.9625 11.0606 39.7737C11.7854 39.5848 12.4786 39.3959 13.2034 39.2071C14.1487 38.9553 15.1255 38.7035 16.0708 38.4516C19.2534 37.6018 21.4906 36.5001 23.3183 34.9578C26.3748 32.3452 27.8558 28.8828 28.0763 23.6892C28.2024 22.3043 27.7928 21.0452 26.8789 20.038Z" fill="#666666"/>
</g>
<g id="Group_6">
<path id="Vector_13" d="M35.6389 35.8077C35.7335 35.8392 35.828 35.8392 35.891 35.8392C36.4582 35.8392 36.7418 35.367 36.8363 35.0837C37.0569 34.5486 36.8994 34.1395 36.3322 33.7617C36.2061 33.6988 36.0486 33.6358 35.891 33.6044C35.828 33.5729 35.7335 33.5729 35.6704 33.5414C33.0551 32.6915 32.1413 31.5584 31.9837 28.9459C31.9207 27.8757 31.9522 26.8055 31.9522 25.7353C31.9522 25.2631 31.9522 24.791 31.9522 24.2874V24.1615H32.1728L32.1413 23.6578C32.1097 23.2172 32.0467 22.745 32.0152 22.3044C31.6056 18.6531 28.8642 15.5055 25.1459 14.4667C24.3582 14.2464 23.5389 14.152 22.7511 14.152C19.9152 14.152 17.2998 15.474 15.5352 17.7403C14.3693 19.2511 13.8336 21.0453 13.424 22.745C13.0144 24.5077 12.069 25.2317 10.2414 25.1687C9.26459 25.1372 8.6974 25.5464 8.66589 26.2704C8.66589 26.9628 9.23308 27.4035 10.2099 27.435C12.8883 27.5294 14.7789 26.0815 15.5667 23.406C15.6297 23.1542 15.6927 22.9339 15.7558 22.6821C15.9448 21.9266 16.1654 21.1712 16.4805 20.4472C17.6149 17.9291 20.0097 16.3553 22.7196 16.3553C23.2553 16.3553 23.8225 16.4183 24.3582 16.5442C27.5407 17.2996 29.904 20.2269 29.904 23.406C29.904 24.2874 29.8725 25.2002 29.841 26.0815C29.8095 26.9943 29.7465 27.9386 29.778 28.8829C29.778 32.4397 31.7631 34.8005 35.6389 35.8077Z" fill="#666666"/>
</g>
<g id="Group_7">
<path id="Vector_14" d="M35.6389 31.5583C36.3636 31.873 36.8047 31.7786 37.1514 31.212C37.498 30.5825 37.4034 30.0474 36.8363 29.7011C36.2376 29.3234 35.9855 28.8198 36.0485 28.0644C36.1115 27.0886 36.1745 26.1443 36.206 25.1686L36.2691 24.1613H36.206V24.0354C36.206 23.8151 36.206 23.5947 36.206 23.3744C36.206 22.9023 36.2376 22.4301 36.1745 21.958C35.3553 15.4738 29.8724 10.3747 23.4128 10.1229C23.2237 10.1229 23.0661 10.1229 22.8771 10.1229C17.3942 10.1229 10.84 13.7426 9.42207 21.6747C9.29603 22.3357 9.61114 22.8078 10.2413 22.9967C10.3359 23.0282 10.4619 23.0282 10.5565 23.0282C11.0921 23.0282 11.3757 22.5875 11.5333 22.2413C11.6593 21.895 11.7539 21.5173 11.8484 21.1396L11.9114 20.8563C13.1088 16.0089 17.4888 12.4206 22.3099 12.3262C22.4044 12.3262 22.499 12.3262 22.5935 12.3262C27.7297 12.3262 32.0151 15.4738 33.5276 20.3212C34.2209 22.556 34.0003 24.8538 33.7797 27.0571L33.7482 27.4034C33.6222 29.3234 34.3469 30.9917 35.6389 31.5583Z" fill="#666666"/>
</g>
<g id="Group_8">
<path id="Vector_15" d="M12.7623 43.5823C13.7391 43.299 14.7474 43.0472 15.7242 42.7639C18.1506 42.1029 20.7029 41.4104 23.1607 40.6864C23.7279 40.5291 24.2321 40.4346 24.7363 40.4346C25.524 40.4346 26.2803 40.6235 27.005 41.0327L27.2886 41.1901C28.0134 41.5992 28.7696 42.0399 29.5574 42.3547C30.8493 42.8583 32.2673 43.299 33.7798 43.7082C34.3155 43.8655 34.7881 43.5193 34.9142 42.9213C35.0087 42.5435 34.9457 42.2288 34.7881 42.0084C34.6621 41.7881 34.4415 41.6622 34.1264 41.5992C32.2043 41.2215 30.4712 40.3402 28.7696 39.4903C28.423 39.3015 28.0764 39.1441 27.7298 38.9867C27.0996 38.6719 26.4063 38.4516 25.8076 38.2628C25.5555 38.1683 25.3035 38.1054 25.0829 38.0424C24.8308 38.1054 24.5787 38.1368 24.3581 38.1683C23.917 38.2313 23.5389 38.2942 23.1922 38.4201C21.3016 38.9238 19.411 39.4589 17.4888 39.994C15.6612 40.4976 13.8336 41.0012 12.006 41.5048C10.9662 41.7881 10.588 42.2288 10.7141 42.9213C10.8401 43.5823 11.5018 43.897 12.4787 43.7082C12.5417 43.7082 12.5732 43.6767 12.6362 43.6767C12.6992 43.6137 12.7307 43.5823 12.7623 43.5823Z" fill="#666666"/>
</g>
<g id="Group_9">
<path id="Vector_16" d="M14.7473 32.3453C13.676 32.6915 12.5731 32.9433 11.4702 33.1637C10.903 33.2896 10.3043 33.4155 9.70565 33.5729C9.01241 33.7617 8.60278 34.2968 8.72882 34.8949C8.85486 35.43 9.29601 35.7762 9.8632 35.7762C9.95773 35.7762 10.0838 35.7762 10.1783 35.7447C10.651 35.6503 11.1236 35.5244 11.5648 35.43C12.7622 35.1781 13.9911 34.9263 15.1885 34.5171C20.8919 32.66 23.5073 29.418 23.9169 23.6578C23.9484 22.9024 23.5073 22.3358 22.8771 22.3043C22.8455 22.3043 22.814 22.3043 22.7825 22.3043C22.1208 22.3043 21.6797 22.8079 21.6481 23.6893C21.4591 28.1274 19.1903 30.9603 14.7473 32.3453Z" fill="#666666"/>
</g>
<g id="Group_10">
<path id="Vector_17" d="M31.7631 44.9987C31.1014 44.7469 30.4712 44.4636 29.841 44.2118C29.2738 43.96 28.6751 43.7082 28.0764 43.4879C27.2886 43.1731 26.4693 42.8898 25.6816 42.638C25.3665 42.5121 25.0199 42.4177 24.7048 42.2917L24.6417 42.3862H24.5787C24.4212 42.4177 24.2321 42.4491 24.0745 42.4491C23.7279 42.5121 23.3498 42.5436 23.0032 42.638C19.537 43.5193 16.6381 44.3062 13.8966 45.0302C13.3294 45.1876 13.0458 45.5968 13.1404 46.2263C13.2034 46.8558 13.5815 47.1391 14.1802 47.1706C14.5268 47.1706 14.8104 47.1391 15.0625 47.0762C15.6612 46.9188 16.2284 46.7929 16.8271 46.6355C18.2451 46.2892 19.6946 45.943 21.081 45.4394C22.2154 45.0302 23.2553 44.8099 24.2636 44.8099C25.6816 44.8099 27.005 45.1876 28.36 46.006C29.2108 46.5096 30.2191 46.8243 31.1644 47.1391C31.322 47.2021 31.4795 47.2021 31.6056 47.2021C32.1097 47.2021 32.5194 46.8873 32.6139 46.4152C32.7084 45.6912 32.4564 45.282 31.7631 44.9987Z" fill="#666666"/>
</g>
<g id="Group_11">
<path id="Vector_18" d="M28.8328 48.1778C27.7299 47.6742 26.564 47.265 25.4611 46.8558C25.083 46.7299 24.7049 46.5725 24.3268 46.4466L24.2322 46.604H24.1692C24.0432 46.6355 23.9171 46.6354 23.7596 46.6354C23.476 46.6669 23.1924 46.6984 22.9088 46.7614C22.1525 46.9187 21.3963 47.0761 20.64 47.265C19.6317 47.4853 18.6233 47.7056 17.5835 47.926C16.6697 48.1148 16.2916 48.4926 16.3861 49.2165C16.4806 49.909 16.9848 50.2238 17.8041 50.0978C19.5056 49.8146 20.7976 49.5628 21.9635 49.248C22.6882 49.0591 23.3184 48.9647 23.9801 48.9647C24.9885 48.9647 25.9023 49.185 26.8161 49.6887C27.2257 49.909 27.6984 50.0664 28.1395 50.1608C28.2026 50.1608 28.2971 50.1923 28.3601 50.1923C28.8328 50.1923 29.1794 49.909 29.2424 49.4998C29.2739 48.9962 29.0848 48.2722 28.8328 48.1778Z" fill="#666666"/>
</g>
<g id="Group_12">
<path id="Vector_19" d="M35.2292 37.5703C32.929 36.9722 30.5342 36.1538 28.675 34.1393C28.549 34.0134 28.2654 33.919 27.9188 33.919C27.6982 33.919 27.5091 33.9505 27.3831 34.0134C27.131 34.1079 26.9104 34.6744 26.8789 35.1151C26.8474 35.3669 27.2255 35.7761 27.3831 35.9335C29.4943 38.2313 32.3303 39.1756 35.0402 39.8366C35.6389 39.9939 36.2691 39.3644 36.2691 38.7349C36.2376 38.1683 35.8594 37.7591 35.2292 37.5703Z" fill="#666666"/>
</g>
</g>
<rect id="Rectangle 1" x="1" y="1.93164" width="95" height="56.1368" stroke="#666666" stroke-width="2" stroke-linecap="square"/>
</g>
</svg>
