<svg width="140" height="84" viewBox="0 0 140 84" fill="none" xmlns="http://www.w3.org/2000/svg">
<g id="Group">
<g id="Group_2">
<path id="Vector" d="M73.7217 40.9767L69.8105 28.9248H66.8544V40.9767H63.7163V13.4164H69.765C71.9935 13.4164 73.6308 14.0531 74.6768 15.372C75.7228 16.6454 76.2686 18.6465 76.2686 21.2843C76.2686 22.876 76.0412 24.2859 75.5409 25.4684C75.0861 26.6963 74.131 27.6059 72.7212 28.2881L76.9053 40.9767H73.7217ZM73.176 21.2843C73.176 20.5566 73.1305 19.8744 73.0395 19.2832C72.9486 18.692 72.7212 18.1462 72.4483 17.7369C72.13 17.2821 71.7206 16.9638 71.2204 16.7364C70.7201 16.509 70.0834 16.3725 69.2648 16.3725H66.8998V26.0596H69.5376C70.2653 26.0596 70.8565 25.9686 71.3113 25.7412C71.7661 25.5138 72.1754 25.1955 72.4483 24.7862C72.7212 24.3769 72.9031 23.8766 73.0395 23.2854C73.1305 22.6032 73.176 21.9665 73.176 21.2843Z" fill="#D3D2D2"/>
<path id="Vector_2" d="M84.1819 40.9767V13.4164H87.3199V40.9313L84.1819 40.9767Z" fill="#D3D2D2"/>
<path id="Vector_3" d="M101.6 13.189C103.738 13.189 105.284 13.7802 106.239 14.9172C107.194 16.0996 107.695 17.6004 107.695 19.4651L104.557 20.0108C104.602 18.7829 104.375 17.8278 103.92 17.1457C103.465 16.418 102.692 16.0996 101.555 16.0996C100.918 16.0996 100.418 16.2361 100.009 16.5544C99.5993 16.8273 99.281 17.1911 99.099 17.6459C98.8716 18.1007 98.7352 18.5555 98.6442 19.1013C98.5533 19.647 98.5078 20.1473 98.5078 20.6021V34.4732C98.5078 34.8825 98.5533 35.2918 98.6442 35.7466C98.7352 36.2014 98.8716 36.6107 99.099 37.02C99.3264 37.3839 99.6448 37.7477 100.009 37.9751C100.372 38.248 100.918 38.3844 101.509 38.3844C102.555 38.3844 103.283 38.0661 103.783 37.4294C104.284 36.7926 104.511 35.7921 104.557 34.4277L107.74 34.9735C107.695 36.9291 107.149 38.4754 106.148 39.6124C105.148 40.7039 103.601 41.2951 101.6 41.2951C99.5084 41.2951 97.9621 40.7039 96.916 39.5669C95.87 38.3844 95.3698 36.7926 95.3698 34.6551V20.9659C95.3698 20.0108 95.4607 19.0558 95.6426 18.1007C95.8245 17.1457 96.1429 16.327 96.5522 15.5994C97.007 14.8717 97.6437 14.2805 98.4623 13.8257C99.281 13.4164 100.327 13.189 101.6 13.189Z" fill="#D3D2D2"/>
<path id="Vector_4" d="M127.16 33.5637C127.16 36.0196 126.659 37.9297 125.704 39.2486C124.749 40.5675 123.112 41.2497 120.793 41.2497C118.519 41.2497 116.927 40.6129 115.926 39.385C114.971 38.1571 114.471 36.5198 114.471 34.4733V20.9205C114.471 19.9654 114.562 19.0104 114.744 18.0553C114.926 17.1457 115.244 16.3271 115.699 15.5994C116.154 14.8717 116.79 14.2805 117.609 13.8712C118.428 13.4164 119.474 13.2345 120.793 13.2345C122.157 13.2345 123.248 13.4164 124.113 13.8257C124.931 14.1896 125.568 14.7353 126.023 15.4175C126.478 16.0997 126.75 16.9183 126.932 17.8279C127.069 18.7375 127.16 19.7835 127.16 20.875V33.5637ZM124.067 20.3292C124.067 19.8745 124.022 19.3742 123.976 18.8739C123.931 18.3736 123.794 17.9188 123.567 17.5095C123.339 17.1002 123.021 16.7819 122.612 16.4635C122.157 16.1906 121.611 16.0542 120.884 16.0542C120.11 16.0542 119.474 16.2361 119.064 16.6454C118.655 17.0093 118.337 17.4641 118.109 18.0098C117.882 18.5556 117.791 19.1013 117.745 19.6925C117.7 20.2838 117.7 20.784 117.7 21.1933V34.5187C117.7 34.9281 117.746 35.3374 117.836 35.7922C117.927 36.247 118.064 36.6563 118.291 37.0656C118.519 37.4749 118.837 37.7932 119.246 38.0206C119.656 38.248 120.201 38.3845 120.838 38.3845C121.475 38.3845 122.021 38.248 122.475 37.9752C122.885 37.7023 123.248 37.3839 123.476 36.9746C123.703 36.5653 123.885 36.1105 123.976 35.5648C124.067 35.019 124.113 34.5187 124.113 33.9275V20.3292H124.067Z" fill="#D3D2D2"/>
</g>
<g id="Group_3">
<path id="Vector_5" d="M67.2637 54.666C68.1733 54.666 68.9009 54.8479 69.4467 55.1663C69.9924 55.5301 70.3563 56.0759 70.5382 56.8945C70.7201 57.4857 70.7656 58.3043 70.811 59.3049C70.811 60.3509 70.811 61.5334 70.811 62.8977C70.811 64.2621 70.811 65.4446 70.811 66.4451C70.811 67.4457 70.7201 68.2188 70.5382 68.7646C70.2653 69.7196 69.8105 70.3563 69.1738 70.7202C68.5826 71.084 67.8549 71.2659 67.0818 71.2659H63.4434V54.666H67.2637ZM68.4007 58.9865C68.4007 58.3953 68.3097 57.895 68.0823 57.5767C67.8549 57.2128 67.4456 57.0764 66.8544 57.0764H65.8083V68.8555H66.8544C67.4456 68.8555 67.8549 68.6736 68.0823 68.3552C68.3097 68.0369 68.4007 67.5366 68.4007 66.8999V58.9865Z" fill="#D3D2D2"/>
<path id="Vector_6" d="M75.7682 71.2659V54.666H82.6356V57.0764H78.1786V61.6243H82.0898V64.0802H78.1786V68.8555H82.6356V71.2659H75.7682Z" fill="#D3D2D2"/>
<path id="Vector_7" d="M94.1873 66.536C94.1873 67.2637 94.1418 67.9459 94.0054 68.5371C93.869 69.1283 93.687 69.6286 93.3687 70.0834C93.0503 70.4927 92.6865 70.8111 92.1862 71.084C91.686 71.3113 91.0947 71.4478 90.3671 71.4478C89.6849 71.4478 89.1391 71.3568 88.6389 71.1294C88.1386 70.902 87.7748 70.6292 87.4564 70.2653C87.138 69.9015 86.9106 69.4922 86.7742 68.9919C86.6378 68.4916 86.5468 67.9914 86.5468 67.4001L88.9572 66.8999C89.0027 67.5366 89.0936 68.0368 89.2756 68.4007C89.4575 68.81 89.8213 68.9919 90.4125 68.9919C90.7309 68.9919 91.0038 68.9464 91.1857 68.81C91.3676 68.6736 91.504 68.4916 91.595 68.2642C91.686 68.0369 91.7314 67.764 91.7769 67.4911C91.7769 67.2182 91.8224 66.8999 91.8224 66.5815C91.8224 66.1722 91.8224 65.8538 91.7769 65.581C91.7314 65.3081 91.6405 65.0807 91.504 64.8988C91.3676 64.7169 91.1857 64.535 90.9583 64.3985C90.7309 64.2621 90.4125 64.0802 90.0487 63.8982C89.321 63.5799 88.7298 63.2161 88.275 62.8522C87.8202 62.4884 87.4564 62.1246 87.229 61.7607C87.0016 61.3514 86.8197 60.9421 86.7742 60.5328C86.6833 60.078 86.6833 59.6232 86.6833 59.0775C86.6833 58.3953 86.7742 57.804 86.9106 57.2583C87.0471 56.7125 87.2745 56.2123 87.5928 55.803C87.9112 55.3936 88.3205 55.0753 88.7753 54.8479C89.2756 54.6205 89.8213 54.5295 90.5035 54.5295C91.2312 54.5295 91.8224 54.666 92.3227 54.8934C92.7775 55.1208 93.1868 55.4391 93.4596 55.8484C93.7325 56.2123 93.9599 56.6671 94.0509 57.1219C94.1418 57.5766 94.2328 58.0314 94.2328 58.4407L91.8224 59.032C91.8224 58.4407 91.7314 57.9405 91.5495 57.5312C91.3676 57.1673 91.0038 56.9399 90.4125 56.9399C90.1397 56.9399 89.8668 56.9854 89.7304 57.1219C89.5484 57.2583 89.412 57.3947 89.321 57.6221C89.2301 57.8495 89.1391 58.0314 89.1391 58.3043C89.0936 58.5317 89.0936 58.7591 89.0936 59.032C89.0936 59.3049 89.0936 59.5777 89.1391 59.8051C89.1846 60.0325 89.2756 60.2144 89.412 60.3964C89.5484 60.5783 89.7758 60.7602 90.0487 60.9876C90.3216 61.1695 90.7309 61.3969 91.1857 61.5788C91.8679 61.8517 92.4136 62.17 92.8229 62.4884C93.2323 62.8067 93.5506 63.1706 93.7325 63.5799C93.9599 63.9892 94.0964 64.3985 94.1418 64.8988C94.1873 65.3536 94.1873 65.8993 94.1873 66.536Z" fill="#D3D2D2"/>
<path id="Vector_8" d="M98.7808 71.2659V54.666H101.191V71.2659H98.7808Z" fill="#D3D2D2"/>
<path id="Vector_9" d="M109.923 71.4023C108.65 71.4023 107.695 71.0385 107.103 70.3563C106.512 69.6741 106.194 68.6281 106.194 67.3092V59.032C106.194 58.3953 106.239 57.8041 106.376 57.2583C106.512 56.7126 106.74 56.2123 107.012 55.803C107.331 55.3937 107.695 55.0753 108.195 54.8024C108.65 54.575 109.241 54.4386 109.923 54.4386C111.197 54.4386 112.106 54.8024 112.697 55.4846C113.289 56.1668 113.607 57.0764 113.607 58.2134V58.3953L111.242 58.8956C111.242 58.3043 111.151 57.8041 110.924 57.3947C110.696 57.0309 110.378 56.8035 109.923 56.8035C109.65 56.8035 109.423 56.849 109.241 56.9854C109.059 57.1219 108.923 57.2583 108.832 57.4857C108.741 57.6676 108.65 57.895 108.65 58.1224C108.65 58.3498 108.604 58.5772 108.604 58.7591V67.2182C108.604 67.4002 108.65 67.5821 108.65 67.7185C108.695 67.9914 108.786 68.2643 108.968 68.4917C109.15 68.7191 109.423 68.8555 109.832 68.8555C110.241 68.8555 110.605 68.7191 110.833 68.4917C111.106 68.2643 111.197 67.9459 111.197 67.4911V64.2166H109.787V61.9881H113.607V67.2637C113.607 68.5826 113.243 69.5377 112.561 70.2199C111.924 71.084 111.06 71.4023 109.923 71.4023Z" fill="#D3D2D2"/>
<path id="Vector_10" d="M120.702 61.5788V71.2659H118.291V54.666H120.429L122.293 59.6232C122.43 60.0326 122.612 60.4419 122.748 60.8512C122.885 61.2605 123.067 61.6698 123.203 62.0791L123.976 64.3531C124.022 64.3531 124.022 64.3531 124.022 64.3531H124.067V54.7115H126.432V71.3114H124.34L122.475 66.3996C122.157 65.581 121.884 64.8079 121.611 64.0347C121.338 63.2616 121.02 62.4884 120.747 61.6698L120.702 61.5788Z" fill="#D3D2D2"/>
</g>
<g id="Group_4">
<path id="Vector_11" d="M127.433 46.2068H62.8976V48.9355H127.433V46.2068Z" fill="#D3D2D2"/>
</g>
<g id="Group_5">
<g id="Group_6">
<path id="Vector_12" d="M39.7942 27.6059C38.3389 25.9686 36.1559 25.0135 33.9729 25.0135C33.3362 25.0135 32.6995 25.1045 32.1083 25.2409C29.0612 26.0596 27.242 28.1516 26.4688 31.7445C25.9686 33.9275 25.3773 35.6102 24.5132 36.8836C22.2393 40.4765 18.4645 41.1132 15.0081 41.2496C13.7802 41.2951 13.0525 41.8863 13.0525 42.8869C13.0525 43.9329 13.9166 44.5696 15.1445 44.4786C15.4174 44.4786 15.6903 44.4331 16.0086 44.4331C16.7363 44.3877 17.5094 44.3422 18.2826 44.2058C21.9209 43.4781 24.5587 42.0682 26.5143 39.7033C28.379 37.4748 29.1976 34.8825 29.8798 31.6535C30.3346 29.516 31.8354 28.288 33.9729 28.288C34.2003 28.288 34.4732 28.288 34.746 28.3335C36.7926 28.6064 38.4299 30.562 38.3389 32.6995C38.2479 34.3823 38.1115 35.8376 37.7932 37.1565C36.929 41.0222 35.4282 43.8874 33.0633 46.1614C30.1981 48.8901 26.7417 50.118 23.3763 51.0731C22.1483 51.4369 20.8749 51.7553 19.647 52.0736C18.419 52.392 17.1456 52.7104 15.9177 53.0742C15.4174 53.2106 15.0081 53.529 14.8262 53.9383C14.6443 54.3021 14.5988 54.7114 14.7352 55.1208C15.0081 56.0303 15.9177 56.3942 16.9637 56.1213C18.0097 55.8484 19.0103 55.5755 20.0563 55.3027C21.4207 54.9388 22.8305 54.575 24.1949 54.2112C28.7883 52.9832 32.0173 51.3915 34.6551 49.163C39.0666 45.3882 41.2041 40.3855 41.5224 32.8814C41.7044 30.8804 41.1131 29.0612 39.7942 27.6059Z" fill="#D3D2D2"/>
</g>
<g id="Group_7">
<path id="Vector_13" d="M52.4375 50.3909C52.5739 50.4363 52.7104 50.4363 52.8013 50.4363C53.6199 50.4363 54.0293 49.7541 54.1657 49.3448C54.484 48.5717 54.2566 47.9805 53.438 47.4347C53.2561 47.3438 53.0287 47.2528 52.8013 47.2073C52.7104 47.1618 52.5739 47.1618 52.483 47.1164C48.7082 45.8884 47.3893 44.2512 47.1619 40.4764C47.0709 38.9301 47.1164 37.3838 47.1164 35.8375C47.1164 35.1553 47.1164 34.4731 47.1164 33.7455V33.5636H47.4348L47.3893 32.8359C47.3438 32.1992 47.2529 31.517 47.2074 30.8803C46.6161 25.6047 42.6595 21.0568 37.2929 19.556C36.1559 19.2376 34.9735 19.1012 33.8365 19.1012C29.7434 19.1012 25.9686 21.0113 23.4218 24.2858C21.7391 26.4688 20.9659 29.0611 20.3747 31.517C19.7834 34.0638 18.4191 35.1099 15.7813 35.0189C14.3714 34.9734 13.5528 35.5646 13.5073 36.6107C13.5073 37.6112 14.3259 38.2479 15.7358 38.2934C19.6015 38.4298 22.3303 36.3378 23.4673 32.4721C23.5582 32.1082 23.6492 31.7899 23.7401 31.426C24.013 30.3345 24.3314 29.243 24.7862 28.197C26.4234 24.5587 29.8798 22.2847 33.791 22.2847C34.5642 22.2847 35.3828 22.3757 36.1559 22.5576C40.7493 23.6491 44.1603 27.8787 44.1603 32.4721C44.1603 33.7455 44.1148 35.0644 44.0693 36.3378C44.0238 37.6567 43.9329 39.0211 43.9784 40.3854C43.9784 45.5246 46.8435 48.9355 52.4375 50.3909Z" fill="#D3D2D2"/>
</g>
<g id="Group_8">
<path id="Vector_14" d="M52.4375 44.2512C53.4835 44.706 54.1202 44.5696 54.6205 43.7509C55.1208 42.8414 54.9843 42.0682 54.1657 41.5679C53.3016 41.0222 52.9378 40.2945 53.0287 39.203C53.1197 37.7932 53.2107 36.4288 53.2561 35.0189L53.3471 33.5636H53.2561V33.3817C53.2561 33.0633 53.2561 32.745 53.2561 32.4266C53.2561 31.7444 53.3016 31.0623 53.2107 30.3801C52.0282 21.0114 44.1148 13.6437 34.7916 13.2799C34.5187 13.2799 34.2913 13.2799 34.0185 13.2799C26.1051 13.2799 16.6454 18.51 14.5989 29.9708C14.4169 30.9258 14.8717 31.608 15.7813 31.8809C15.9178 31.9264 16.0997 31.9264 16.2361 31.9264C17.0093 31.9264 17.4186 31.2896 17.646 30.7894C17.8279 30.2891 17.9643 29.7434 18.1008 29.1976L18.1917 28.7883C19.9199 21.7845 26.2415 16.5999 33.1998 16.4634C33.3363 16.4634 33.4727 16.4634 33.6091 16.4634C41.0222 16.4634 47.2074 21.0114 49.3904 28.0152C50.3909 31.2442 50.0726 34.5642 49.7542 37.7477L49.7088 38.248C49.5268 41.0222 50.5729 43.4326 52.4375 44.2512Z" fill="#D3D2D2"/>
</g>
<g id="Group_9">
<path id="Vector_15" d="M19.4196 61.6242C20.8295 61.2149 22.2848 60.8511 23.6947 60.4417C27.1966 59.4867 30.8804 58.4861 34.4278 57.4401C35.2464 57.2127 35.974 57.0763 36.7017 57.0763C37.8387 57.0763 38.9302 57.3492 39.9762 57.9404L40.3855 58.1678C41.4315 58.759 42.523 59.3957 43.66 59.8505C45.5247 60.5782 47.5712 61.2149 49.7542 61.8061C50.5274 62.0335 51.2096 61.5332 51.3915 60.6691C51.5279 60.1234 51.437 59.6686 51.2096 59.3502C51.0276 59.0319 50.7093 58.85 50.2545 58.759C47.4803 58.2133 44.9789 56.9399 42.523 55.7119C42.0228 55.439 41.5225 55.2116 41.0222 54.9842C40.1126 54.5295 39.1121 54.2111 38.248 53.9382C37.8842 53.8018 37.5203 53.7108 37.202 53.6199C36.8382 53.7108 36.4743 53.7563 36.156 53.8018C35.5193 53.8927 34.9735 53.9837 34.4732 54.1656C31.7445 54.8933 29.0157 55.6664 26.2415 56.4396C23.6037 57.1672 20.9659 57.8949 18.3281 58.6226C16.8273 59.0319 16.2816 59.6686 16.4635 60.6691C16.6454 61.6242 17.6005 62.079 19.0103 61.8061C19.1013 61.8061 19.1468 61.7606 19.2377 61.7606C19.3287 61.6697 19.3742 61.6242 19.4196 61.6242Z" fill="#D3D2D2"/>
</g>
<g id="Group_10">
<path id="Vector_16" d="M22.2848 45.3882C20.7385 45.8885 19.1467 46.2523 17.555 46.5707C16.7363 46.7526 15.8722 46.9345 15.0081 47.1619C14.0076 47.4348 13.4164 48.2079 13.5983 49.072C13.7802 49.8452 14.4169 50.3454 15.2355 50.3454C15.372 50.3454 15.5539 50.3454 15.6903 50.3C16.3725 50.1635 17.0547 49.9816 17.6914 49.8452C19.4196 49.4813 21.1933 49.1175 22.9215 48.5263C31.1532 45.843 34.928 41.1587 35.5192 32.836C35.5647 31.7445 34.928 30.9259 34.0184 30.8804C33.9729 30.8804 33.9275 30.8804 33.882 30.8804C32.9269 30.8804 32.2902 31.608 32.2447 32.8815C31.9719 39.294 28.6974 43.3871 22.2848 45.3882Z" fill="#D3D2D2"/>
</g>
<g id="Group_11">
<path id="Vector_17" d="M46.8435 63.6709C45.8884 63.307 44.9788 62.8977 44.0693 62.5339C43.2506 62.17 42.3865 61.8062 41.5224 61.4879C40.3854 61.0331 39.203 60.6238 38.066 60.2599C37.6112 60.078 37.111 59.9416 36.6562 59.7596L36.5652 59.8961H36.4742C36.2468 59.9416 35.974 59.987 35.7466 59.987C35.2463 60.078 34.7006 60.1235 34.2003 60.2599C29.1976 61.5333 25.0135 62.6703 21.0568 63.7163C20.2382 63.9437 19.8289 64.535 19.9653 65.4445C20.0563 66.3541 20.602 66.7634 21.4661 66.8089C21.9664 66.8089 22.3757 66.7634 22.7395 66.6725C23.6036 66.4451 24.4223 66.2632 25.2864 66.0358C27.3329 65.5355 29.425 65.0352 31.4261 64.3076C33.0633 63.7163 34.5641 63.398 36.0194 63.398C38.066 63.398 39.9761 63.9437 41.9317 65.1262C43.1597 65.8539 44.615 66.3086 45.9794 66.7634C46.2068 66.8544 46.4342 66.8544 46.6161 66.8544C47.3438 66.8544 47.935 66.3996 48.0714 65.7174C48.2079 64.6714 47.844 64.0802 46.8435 63.6709Z" fill="#D3D2D2"/>
</g>
<g id="Group_12">
<path id="Vector_18" d="M42.614 68.2642C41.0223 67.5365 39.3395 66.9453 37.7478 66.354C37.202 66.1721 36.6563 65.9447 36.1105 65.7628L35.9741 65.9902H35.8831C35.7012 66.0357 35.5193 66.0357 35.2919 66.0357C34.8826 66.0812 34.4733 66.1267 34.064 66.2176C32.9725 66.445 31.881 66.6724 30.7895 66.9453C29.3341 67.2636 27.8788 67.582 26.378 67.9003C25.0591 68.1732 24.5133 68.719 24.6498 69.765C24.7862 70.7655 25.5139 71.2203 26.6963 71.0384C29.1522 70.6291 31.0169 70.2653 32.6996 69.8105C33.7456 69.5376 34.6552 69.4011 35.6102 69.4011C37.0656 69.4011 38.3845 69.7195 39.7034 70.4472C40.2946 70.7655 40.9768 70.9929 41.6135 71.1294C41.7045 71.1294 41.8409 71.1748 41.9319 71.1748C42.614 71.1748 43.1143 70.7655 43.2053 70.1743C43.2507 69.4466 42.9779 68.4006 42.614 68.2642Z" fill="#D3D2D2"/>
</g>
<g id="Group_13">
<path id="Vector_19" d="M51.8463 52.9377C48.5263 52.0736 45.0699 50.8911 42.3866 47.9805C42.2047 47.7985 41.7954 47.6621 41.2951 47.6621C40.9768 47.6621 40.7039 47.7076 40.522 47.7985C40.1581 47.935 39.8398 48.7536 39.7943 49.3903C39.7488 49.7541 40.2946 50.3454 40.522 50.5728C43.5691 53.8928 47.6622 55.2571 51.5734 56.2122C52.4375 56.4396 53.3471 55.53 53.3471 54.6204C53.3016 53.8018 52.7559 53.2106 51.8463 52.9377Z" fill="#D3D2D2"/>
</g>
</g>
<g id="Group_14">
<path id="Vector_20" d="M139.848 84H0V0H139.848V84ZM2.72875 81.2713H137.12V2.72875H2.72875V81.2713Z" fill="#D3D2D2"/>
</g>
</g>
</svg>
