<svg width="24" height="24" viewBox="0 0 24 24" fill="none" xmlns="http://www.w3.org/2000/svg">
    <g id="Moon">
        <path id="Vector"
            d="M19.5609 14.6836C19.2796 15.4612 18.878 16.1944 18.3671 16.8551C17.4377 18.0572 16.1851 18.9698 14.756 19.486C13.3268 20.0022 11.7802 20.1008 10.2971 19.7701C8.81403 19.4394 7.45579 18.6931 6.38133 17.6187C5.30686 16.5442 4.56063 15.186 4.22993 13.7029C3.89924 12.2198 3.99776 10.6732 4.51398 9.24402C5.03019 7.81488 5.94275 6.5623 7.14487 5.63287C7.80559 5.12202 8.53877 4.72041 9.31638 4.43906C8.93537 5.49218 8.77673 6.62181 8.86129 7.75578C9.00379 9.6666 9.82738 11.4628 11.1823 12.8177C12.5372 14.1726 14.3334 14.9962 16.2442 15.1387C17.3782 15.2233 18.5078 15.0646 19.5609 14.6836Z"
            stroke="#666666" stroke-width="2" stroke-linecap="round" />
    </g>
</svg>