<svg width="27" height="35" viewBox="0 0 27 35" fill="none" xmlns="http://www.w3.org/2000/svg">
<g id="Icons_2" clip-path="url(#clip0_195_720)">
<path id="Vector" d="M26.8525 33.3896L25.8197 7.6118C25.8197 7.09624 25.4508 6.75254 25.0082 6.75254H19.0328V6.49476C19.0328 3.05772 16.5984 0.222168 13.6475 0.222168C10.6967 0.222168 8.2623 3.05772 8.2623 6.49476V6.75254H1.84426C1.40164 6.75254 1.10656 7.18217 1.03279 7.6118L0 33.6474C0 33.9051 0.0737705 34.1629 0.221312 34.3348C0.368852 34.5066 0.590164 34.5925 0.811476 34.5925H26.1148C26.5574 34.5925 26.9262 34.1629 26.9262 33.6474C26.8525 33.5614 26.8525 33.4755 26.8525 33.3896ZM6.78689 32.7022L1.91803 26.6014L2.43443 13.6266L7.45082 8.55698H8.11475C7.67213 10.2755 7.7459 11.5644 8.04098 12.5955L6.86066 16.0325C6.78689 16.2044 6.78689 16.3762 6.86066 16.5481L10.5492 25.9999C10.623 26.2577 10.8443 26.3436 11.0656 26.3436C11.1393 26.3436 11.2131 26.3436 11.2869 26.2577L17.1885 23.2503C17.3361 23.1644 17.4098 23.0785 17.4836 22.9066C17.5574 22.7348 17.5574 22.5629 17.4836 22.3911L16.0082 18.5244L13.8689 12.9392C13.7951 12.7674 13.7213 12.6814 13.5738 12.5955L10.3279 11.3066C10.4016 10.1896 10.5492 9.24439 10.623 8.55698H18.8115L24.4918 13.7125L25.0082 26.6874L19.9918 32.7881L6.78689 32.7022ZM16.3033 22.3911L11.3607 24.9688L10.2541 22.1333L15.1967 19.6414L16.3033 22.3911ZM9.81148 21.0162L9.36885 19.8992L14.3115 17.3214L14.7541 18.4385L9.81148 21.0162ZM8.92623 18.7822L7.89344 16.2044L8.63115 13.9703C8.85246 14.2281 9 14.4859 9.22131 14.7436C9.07377 15.1733 9.07377 15.6029 9.22131 16.0325C9.44262 16.634 9.95902 17.0637 10.5492 17.0637C10.7705 17.0637 10.918 16.9777 11.1393 16.8918C11.8771 16.5481 12.1721 15.517 11.8771 14.6577C11.582 13.7985 10.6967 13.4548 9.95902 13.7985C9.66394 13.5407 9.36885 13.1111 9.14754 12.5096L9.29508 11.994L12.8361 13.5407L13.8689 16.1185L8.92623 18.7822ZM10.3279 15.6029C10.5492 15.6029 10.6967 15.517 10.7705 15.2592C10.7705 15.2592 10.7705 15.2592 10.7705 15.1733L10.8443 15.2592C10.918 15.517 10.8443 15.7748 10.623 15.8607C10.4016 15.9466 10.1803 15.8607 10.1066 15.6029V15.517C10.2541 15.517 10.3279 15.6029 10.3279 15.6029ZM9.22131 10.7911C9.07377 10.7051 8.92623 10.7051 8.85246 10.7911C8.85246 10.1896 9 9.41624 9.22131 8.55698H9.59017C9.51639 9.15846 9.44262 9.9318 9.36885 10.7911H9.22131ZM24.418 12.0799L20.5082 8.55698H24.2705L24.418 12.0799ZM9.88525 6.49476C9.88525 4.08883 11.582 2.11254 13.6475 2.11254C15.7131 2.11254 17.4098 4.08883 17.4098 6.49476V6.75254H9.88525V6.49476ZM5.82787 8.55698L2.43443 11.9081L2.58197 8.55698H5.82787ZM1.77049 28.4059L5.31148 32.7881H1.62295L1.77049 28.4059ZM21.4672 32.7022L25.082 28.3199L25.2295 32.7022H21.4672Z" fill="#D3D2D2"/>
</g>
<defs>
<clipPath id="clip0_195_720">
<rect width="27" height="34.3704" fill="white" transform="translate(0 0.222168)"/>
</clipPath>
</defs>
</svg>
