<svg width="32" height="35" viewBox="0 0 32 35" fill="none" xmlns="http://www.w3.org/2000/svg">
<g id="Icons_4" clip-path="url(#clip0_195_763)">
<g id="Group">
<g id="Group_2">
<g id="Group_3">
<g id="Group_4">
<g id="Group_5">
<path id="Vector" d="M10.9108 34.5926C10.8375 34.5926 10.7643 34.5926 10.6911 34.5926L0.585812 31.5852C0.21968 31.4993 0 31.0697 0 30.64V1.16743C0 0.909654 0.146453 0.56595 0.292906 0.394099C0.512586 0.222247 0.732265 0.136321 1.02517 0.222247L11.1304 3.22965C11.5698 3.31558 11.8627 3.91706 11.7162 4.34669C11.643 4.86225 11.1304 5.20595 10.7643 5.0341L1.61098 2.37039V29.8667L11.1304 32.7022C11.5698 32.8741 11.8627 33.3896 11.7162 33.8193C11.643 34.3348 11.2769 34.5926 10.9108 34.5926Z" fill="#D3D2D2"/>
</g>
</g>
<g id="Group_6">
<g id="Group_7">
<path id="Vector_2" d="M31.1945 34.5926C31.1213 34.5926 31.048 34.5926 30.9748 34.5926L20.8696 31.5852C20.4302 31.4133 20.1373 30.8978 20.2837 30.4682C20.357 29.9526 20.8696 29.6089 21.2357 29.7807L30.3158 32.4444V4.94815L20.7963 2.1126C20.357 2.02667 20.0641 1.42519 20.2105 0.99556C20.2837 0.480005 20.7963 0.222227 21.1625 0.308153L31.2677 3.31556C31.6339 3.40149 31.8535 3.83112 31.8535 4.26075V33.7333C31.8535 33.9911 31.7071 34.3348 31.5606 34.5067C31.5606 34.5067 31.341 34.5926 31.1945 34.5926Z" fill="#D3D2D2"/>
</g>
</g>
<g id="Group_8">
<g id="Group_9">
<path id="Vector_3" d="M10.984 5.12005C10.6178 5.12005 10.2517 4.86228 10.1785 4.43265C10.1053 3.91709 10.3249 3.40154 10.7643 3.31561L20.8696 0.222277C21.3089 0.136351 21.7483 0.394129 21.8215 0.909684C21.968 1.42524 21.6751 1.9408 21.2357 2.11265L11.1304 5.12005C11.0572 5.12005 10.984 5.12005 10.984 5.12005Z" fill="#D3D2D2"/>
</g>
</g>
<g id="Group_10">
<g id="Group_11">
<path id="Vector_4" d="M10.984 34.5926C10.6178 34.5926 10.2517 34.3348 10.1785 33.9052C10.1053 33.3896 10.3249 32.8741 10.7643 32.7882L20.8696 29.7807C21.3089 29.6948 21.7483 29.9526 21.8215 30.4682C21.8947 30.9837 21.6751 31.4993 21.2357 31.5852L11.1304 34.5926C11.0572 34.5926 10.984 34.5926 10.984 34.5926Z" fill="#D3D2D2"/>
</g>
</g>
<g id="Group_12">
<g id="Group_13">
<g id="Group_14">
<path id="Vector_5" d="M17.9405 8.81484V12.08L14.1327 13.1971V9.93188L17.9405 8.81484ZM19.0389 7.18225L13.0343 8.98669V14.9156L19.0389 13.1111V7.18225Z" fill="#D3D2D2"/>
</g>
</g>
</g>
<g id="Group_15">
<g id="Group_16">
<g id="Group_17">
<path id="Vector_6" d="M3.29519 22.3911L8.49428 23.9378V28.5778L3.29519 27.0311V22.3911ZM2.27002 20.7585V27.9763L9.59267 30.1245V22.9067L2.27002 20.7585Z" fill="#D3D2D2"/>
</g>
</g>
</g>
<g id="Group_18">
<g id="Group_19">
<path id="Vector_7" d="M13.3272 18.3526C13.1076 18.3526 12.8879 18.1808 12.8147 17.8371C12.7414 17.4933 12.8879 17.1496 13.1808 17.0637L18.9657 15.3452C19.2586 15.2593 19.5515 15.4311 19.6247 15.7748C19.6979 16.1185 19.5515 16.4622 19.2586 16.5482L13.4737 18.2667C13.4005 18.3526 13.3272 18.3526 13.3272 18.3526Z" fill="#D3D2D2"/>
</g>
</g>
<g id="Group_20">
<g id="Group_21">
<path id="Vector_8" d="M13.3272 21.7897C13.1076 21.7897 12.8879 21.6178 12.8147 21.2741C12.7414 20.9304 12.8879 20.5867 13.1808 20.5008L18.9657 18.7823C19.2586 18.6963 19.5515 18.8682 19.6247 19.2119C19.6979 19.5556 19.5515 19.8993 19.2586 19.9852L13.4737 21.7038C13.4005 21.7897 13.3272 21.7897 13.3272 21.7897Z" fill="#D3D2D2"/>
</g>
</g>
<g id="Group_22">
<g id="Group_23">
<path id="Vector_9" d="M13.3272 25.1408C13.1076 25.1408 12.8879 24.9689 12.8147 24.6252C12.7414 24.2815 12.8879 23.9378 13.1808 23.8519L18.9657 22.1333C19.2586 22.0474 19.5515 22.2193 19.6247 22.563C19.6979 22.9067 19.5515 23.2504 19.2586 23.3363L13.4737 25.0548C13.4005 25.1408 13.3272 25.1408 13.3272 25.1408Z" fill="#D3D2D2"/>
</g>
</g>
</g>
<g id="Group_24">
<path id="Vector_10" d="M10.9107 34.2489C10.6178 34.2489 10.3982 33.9911 10.3982 33.6474V4.17485C10.3982 3.83114 10.6178 3.57336 10.9107 3.57336C11.2037 3.57336 11.4233 3.83114 11.4233 4.17485V33.6474C11.4966 33.9911 11.2037 34.2489 10.9107 34.2489Z" fill="#D3D2D2"/>
</g>
<g id="Group_25">
<path id="Vector_11" d="M21.0892 30.8119C20.7963 30.8119 20.5767 30.5541 20.5767 30.2104V1.16746C20.5767 0.823757 20.7963 0.565979 21.0892 0.565979C21.3822 0.565979 21.6018 0.823757 21.6018 1.16746V30.1245C21.6018 30.4682 21.3822 30.8119 21.0892 30.8119Z" fill="#D3D2D2"/>
</g>
<g id="Group_26">
<path id="Vector_12" d="M8.78718 19.8133C8.71396 19.8133 8.71396 19.8133 8.64073 19.8133L2.70938 18.2667C2.41647 18.1807 2.19679 17.837 2.27002 17.4933C2.34325 17.1496 2.63615 16.8918 2.92906 16.9778L8.86041 18.5244C9.15332 18.6104 9.373 18.9541 9.29977 19.2978C9.22654 19.6415 9.00686 19.8133 8.78718 19.8133Z" fill="#D3D2D2"/>
</g>
<g id="Group_27">
<path id="Vector_13" d="M29.1442 29.9526C29.0709 29.9526 29.0709 29.9526 28.9977 29.9526L22.9199 28.2341C22.627 28.1482 22.4805 27.8045 22.4805 27.4608C22.5538 27.1171 22.8467 26.8593 23.1396 27.0311L29.2174 28.7497C29.5103 28.8356 29.6567 29.1793 29.5835 29.523C29.5835 29.7808 29.3638 29.9526 29.1442 29.9526Z" fill="#D3D2D2"/>
</g>
<g id="Group_28">
<path id="Vector_14" d="M28.6316 7.52596C28.5583 7.52596 28.5583 7.52596 28.4851 7.52596L23.0664 5.80744C22.7735 5.72151 22.627 5.37781 22.7002 5.03411C22.7735 4.6904 23.0664 4.51855 23.3593 4.60448L28.778 6.323C29.0709 6.40892 29.2906 6.75263 29.1442 7.09633C29.1442 7.35411 28.9245 7.52596 28.6316 7.52596Z" fill="#D3D2D2"/>
</g>
</g>
</g>
</g>
<defs>
<clipPath id="clip0_195_763">
<rect width="32" height="34.3704" fill="white" transform="translate(0 0.222229)"/>
</clipPath>
</defs>
</svg>
