<svg width="31" height="35" viewBox="0 0 31 35" fill="none" xmlns="http://www.w3.org/2000/svg">
<g id="Icons_3" clip-path="url(#clip0_195_651)">
<g id="Group">
<g id="Group_2">
<g id="Group_3">
<g id="Group_4">
<g id="Group_5">
<g id="Group_6">
<path id="Vector" d="M7.71429 14.9156C7.35714 14.9156 7.07143 14.8297 6.78572 14.6578C5.42857 13.7126 5.42857 10.7052 5.42857 8.47115V6.49485C5.42857 4.51856 5.71429 1.94078 7.07143 0.995595C7.92857 0.394113 9 0.480039 10.2857 1.3393L14.0714 4.08893C14.3571 4.26078 14.4286 4.69041 14.2143 4.94819C14.0714 5.20596 13.7143 5.37782 13.5 5.12004L9.71429 2.37041C8.78572 1.76893 8.07143 1.683 7.57143 2.02671C6.85715 2.54226 6.42857 4.17485 6.42857 6.49485V8.38522C6.42857 10.1037 6.42857 12.8534 7.28572 13.4549C7.71429 13.7986 8.42857 13.3689 8.92857 13.0252L13.4286 9.76004C13.7143 9.58819 14 9.67411 14.1429 10.0178C14.2857 10.3615 14.2143 10.7052 13.9286 10.8771L9.35714 14.1423C8.85714 14.6578 8.28572 14.9156 7.71429 14.9156Z" fill="#D3D2D2"/>
</g>
<g id="Group_7">
<path id="Vector_2" d="M6.14286 12.3378C5.85715 12.3378 5.57143 11.9941 5.64286 11.6504C5.71429 9.93187 6.78572 8.0415 9 8.0415C11.1429 8.0415 13.5 8.0415 13.5 8.0415V9.33039C13.5 9.33039 11.1429 9.33039 9 9.33039C7.5 9.33039 6.78572 10.5334 6.71429 11.7363C6.64286 12.08 6.42858 12.3378 6.14286 12.3378Z" fill="#D3D2D2"/>
</g>
<g id="Group_8">
<path id="Vector_3" d="M23.5 14.9156C23 14.9156 22.3571 14.6578 21.7143 14.2282L17.1429 10.8771C16.8571 10.7052 16.7857 10.2756 16.9286 10.0178C17.0714 9.67411 17.4286 9.58819 17.6429 9.76004L22.2143 13.0252C22.7143 13.3689 23.4286 13.7126 23.8571 13.4549C24.7143 12.8534 24.7143 10.0178 24.7143 8.38522V6.49485C24.7143 4.17485 24.2857 2.54226 23.5714 2.02671C23.0714 1.683 22.3571 1.76893 21.4286 2.37041L17.7143 5.12004C17.4286 5.29189 17.1429 5.20596 17 4.94819C16.8571 4.60448 16.9286 4.26078 17.1429 4.08893L20.9286 1.3393C22.2143 0.480039 23.2857 0.394113 24.1429 0.995595C25.5714 1.94078 25.8571 4.51856 25.8571 6.49485V8.38522C25.8571 10.6193 25.8571 13.6267 24.5 14.5719C24.1429 14.8297 23.8571 14.9156 23.5 14.9156Z" fill="#D3D2D2"/>
</g>
<g id="Group_9">
<path id="Vector_4" d="M25.1429 12.3378C24.8571 12.3378 24.6429 12.08 24.6429 11.7363C24.5714 10.6193 24 9.3304 22.3571 9.3304C20.2143 9.3304 17.8571 9.3304 17.8571 9.3304C17.5714 9.3304 17.3571 9.07263 17.3571 8.72892C17.3571 8.38522 17.5714 8.12744 17.8571 8.12744C17.8571 8.12744 20.2143 8.12744 22.3571 8.12744C24.5714 8.12744 25.6429 10.0178 25.7143 11.7363C25.7143 11.9941 25.4286 12.3378 25.1429 12.3378Z" fill="#D3D2D2"/>
</g>
<g id="Group_10">
<path id="Vector_5" d="M17.4286 10.963H13.7857C13.5 10.963 13.2857 10.7052 13.2857 10.3615V4.60447C13.2857 4.26077 13.5 4.00299 13.7857 4.00299H17.4286C17.7143 4.00299 17.9286 4.26077 17.9286 4.60447V10.3615C18 10.7052 17.7143 10.963 17.4286 10.963ZM14.3571 9.6741H16.9286V5.20595H14.3571V9.6741Z" fill="#D3D2D2"/>
</g>
<g id="Group_11">
<path id="Vector_6" d="M6.28571 25.9141H6.21428C6 25.8282 5.85714 25.6564 5.78571 25.3986L5 19.7275H4.07143C3.78571 19.7275 3.57143 19.3838 3.57143 19.0401C3.57143 18.6964 3.78571 18.4386 4.14286 18.4386L5.5 18.5245C5.78571 18.5245 6 18.7823 6 19.0401L6.64285 23.5082L13.4286 10.0178C13.5714 9.67413 13.9286 9.58821 14.1429 9.76006C14.4286 9.93191 14.5 10.3615 14.3571 10.6193L6.71428 25.5704C6.64285 25.7423 6.5 25.9141 6.28571 25.9141Z" fill="#D3D2D2"/>
</g>
<g id="Group_12">
<path id="Vector_7" d="M25 25.9141C24.7857 25.9141 24.6429 25.8282 24.5714 25.5704L17 10.7052C16.8571 10.3615 16.9286 10.0178 17.1429 9.84594C17.3571 9.67408 17.7143 9.76001 17.8571 10.1037L24.6429 23.5941L25.2857 19.2119C25.3571 18.8682 25.6429 18.6104 25.9286 18.6963C26.2143 18.7822 26.4286 19.1259 26.3571 19.4696L25.4286 25.4845C25.3571 25.7422 25.2143 25.9141 25 26C25 25.9141 25 25.9141 25 25.9141Z" fill="#D3D2D2"/>
</g>
<g id="Group_13">
<path id="Vector_8" d="M13.3571 7.18227H10.3571C10.0714 7.18227 9.85715 6.92449 9.85715 6.58079C9.85715 6.23709 10.0714 5.97931 10.3571 5.97931H13.3571C13.6429 5.97931 13.8571 6.23709 13.8571 6.58079C13.9286 6.92449 13.6429 7.18227 13.3571 7.18227Z" fill="#D3D2D2"/>
</g>
<g id="Group_14">
<path id="Vector_9" d="M20.8571 7.18226H17.8571C17.5714 7.18226 17.3571 6.92448 17.3571 6.58078C17.3571 6.23707 17.5714 5.9793 17.8571 5.9793H20.8571C21.1429 5.89337 21.4286 6.23707 21.4286 6.58078C21.4286 6.92448 21.1429 7.18226 20.8571 7.18226Z" fill="#D3D2D2"/>
</g>
</g>
<g id="Group_15">
<path id="Vector_10" d="M27.5714 34.5926H3.64286C3.21429 34.5926 2.85714 34.163 2.85714 33.6474V20.1571L0.714287 19.9852C0.428573 19.9852 0.142859 19.7274 0.0714301 19.3837C-0.0714271 19.1259 1.49896e-06 18.7822 0.142859 18.4385L2.85714 14.3141V8.64299C2.85714 8.12743 3.21429 7.6978 3.64286 7.6978H5.71429C6.14286 7.6978 6.5 8.12743 6.5 8.64299C6.5 9.15854 6.14286 9.58817 5.71429 9.58817H4.5V14.6578C4.5 14.9156 4.42857 15.0874 4.35714 15.2593L2.35714 18.2667L3.71429 18.3526C4.14286 18.3526 4.42857 18.7822 4.42857 19.2978V32.7022H26.7143L26.6429 19.3837C26.6429 18.8682 26.9286 18.5245 27.2857 18.4385L28.5 18.1808L26.9286 16.1185C26.7857 15.9467 26.7143 15.6889 26.7143 15.4311V9.50225H25.5C25.0714 9.50225 24.7143 9.07262 24.7143 8.55706C24.7143 8.04151 25.0714 7.61188 25.5 7.61188H27.5C27.9286 7.61188 28.2857 8.04151 28.2857 8.55706V15.0874L30.6429 18.1808C30.8571 18.4385 30.9286 18.7822 30.7857 19.1259C30.7143 19.4697 30.4286 19.7274 30.1429 19.7274L28.1429 20.0711L28.2143 33.5615C28.2143 33.8193 28.1429 34.0771 28 34.2489C28 34.5067 27.7857 34.5926 27.5714 34.5926Z" fill="#D3D2D2"/>
</g>
<g id="Group_16">
<path id="Vector_11" d="M18.9286 34.0771C18.6429 34.0771 18.4286 33.8193 18.4286 33.4756V13.1111C18.4286 12.7674 18.6429 12.5096 18.9286 12.5096C19.2143 12.5096 19.4286 12.7674 19.4286 13.1111V33.4756C19.5 33.8193 19.2143 34.0771 18.9286 34.0771Z" fill="#D3D2D2"/>
</g>
<g id="Group_17">
<path id="Vector_12" d="M12.2857 34.3349C12 34.3349 11.7857 34.0771 11.7857 33.7334V13.283C11.7857 12.9393 12 12.6815 12.2857 12.6815C12.5714 12.6815 12.7857 12.9393 12.7857 13.283V33.6474C12.8571 33.9911 12.6429 34.3349 12.2857 34.3349Z" fill="#D3D2D2"/>
</g>
</g>
<g id="Group_18">
<g id="Group_19">
<path id="Vector_13" d="M5.92857 9.33038C5.5 9.33038 5.14285 8.90075 5.14285 8.38519V6.49482C5.14285 4.4326 5.42857 1.7689 6.92857 0.651861C7.85714 -0.0355463 9 0.0503796 10.4286 0.995565L14.2143 3.74519C14.5714 4.00297 14.7143 4.60445 14.5 5.03408C14.2857 5.46371 13.7857 5.63557 13.4286 5.37779L9.64285 2.62816C9.07142 2.28445 8.28571 1.94075 7.78571 2.28445C7.14285 2.80001 6.78571 4.34668 6.78571 6.49482V8.38519C6.78571 8.90075 6.42857 9.33038 5.92857 9.33038Z" fill="#D3D2D2"/>
</g>
<g id="Group_20">
<path id="Vector_14" d="M25.2857 9.33039C24.8571 9.33039 24.5 8.90076 24.5 8.3852V6.49483C24.5 4.34669 24.1429 2.80002 23.5 2.28446C23 1.94076 22.2143 2.28446 21.5714 2.62817L17.8571 5.46372C17.5 5.7215 17 5.63558 16.7857 5.12002C16.5714 4.69039 16.6429 4.08891 17.0714 3.83113L20.7857 1.0815C22.2143 0.136317 23.3571 0.0503912 24.2857 0.737799C25.7857 1.76891 26.0714 4.51854 26.0714 6.58076V8.47113C26.0714 8.90076 25.7143 9.33039 25.2857 9.33039Z" fill="#D3D2D2"/>
</g>
<g id="Group_21">
<path id="Vector_15" d="M17.4286 5.54961H13.7857C13.3571 5.54961 13 5.11998 13 4.60443C13 4.08887 13.3571 3.65924 13.7857 3.65924H17.4286C17.8571 3.65924 18.2143 4.08887 18.2143 4.60443C18.2143 5.11998 17.8571 5.54961 17.4286 5.54961Z" fill="#D3D2D2"/>
</g>
</g>
</g>
<g id="Group_22">
<path id="Vector_16" d="M3.07143 16.2044C2.92857 16.2044 2.78572 16.1185 2.71429 16.0326C2.5 15.7748 2.5 15.3452 2.71429 15.1733L5.71429 11.2207C5.92857 10.963 6.28572 10.963 6.5 11.2207C6.71429 11.4785 6.71429 11.9081 6.5 12.08L3.42857 15.9467C3.35715 16.1185 3.21429 16.2044 3.07143 16.2044Z" fill="#D3D2D2"/>
</g>
<g id="Group_23">
<path id="Vector_17" d="M27.7857 16.8059C27.6429 16.8059 27.5 16.72 27.3571 16.5482L24.8571 12.9393C24.6429 12.6815 24.7143 12.2519 24.9286 12.08C25.1429 11.8222 25.5 11.9082 25.6429 12.1659L28.1429 15.7748C28.3571 16.0326 28.2857 16.4622 28.0714 16.6341C28 16.72 27.8571 16.8059 27.7857 16.8059Z" fill="#D3D2D2"/>
</g>
<g id="Group_24">
<path id="Vector_18" d="M25.8571 19.8134C25.5714 19.8134 25.3571 19.5556 25.3571 19.2978C25.2857 18.9541 25.5 18.6104 25.7857 18.6104L29 18.0948C29.2857 18.0948 29.5714 18.2667 29.5714 18.6104C29.5714 18.9541 29.4286 19.2978 29.1428 19.2978L25.8571 19.8134C25.9286 19.8134 25.9286 19.8134 25.8571 19.8134Z" fill="#D3D2D2"/>
</g>
</g>
</g>
</g>
<defs>
<clipPath id="clip0_195_651">
<rect width="31" height="34.3704" fill="white" transform="translate(0 0.222229)"/>
</clipPath>
</defs>
</svg>
