<svg width="30" height="30" viewBox="0 0 30 30" fill="none" xmlns="http://www.w3.org/2000/svg">
<g id="starbucks" clip-path="url(#clip0_72_353)">
<path id="Vector" d="M30 14.9995C30 23.2829 23.2842 29.9981 15.0001 29.9981C6.71571 29.9981 6.10352e-05 23.2829 6.10352e-05 14.9995C6.10352e-05 6.71611 6.71581 0.000976562 15.0001 0.000976562C23.2842 0.000976562 30 6.71611 30 14.9995Z" fill="white"/>
<path id="Vector_2" d="M14.875 5.33359C15.403 5.63637 15.9632 6.02603 16.3895 6.43907L16.2221 6.60641C15.3806 6.51742 14.4945 6.62858 13.6967 6.64082C13.6079 6.55153 13.4287 6.4173 13.5955 6.30514L14.875 5.33359ZM29.7524 15.731C29.7636 16.1088 29.7993 16.4332 29.6512 16.82C28.114 17.255 27.1043 15.6359 25.6129 15.88L25.7815 16.7192C27.1613 16.7644 28.0233 18.0808 29.4487 18.0242C29.2462 18.4265 29.539 19.4867 28.6419 19.0629C27.7104 18.8402 27.037 18.0242 26.0165 18.0242C25.8933 18.249 25.9714 18.5604 25.9497 18.8266C27.0264 18.9945 27.8008 19.8998 28.8771 20.067C28.7758 20.435 28.6756 20.847 28.3722 21.0713C27.4966 20.8593 26.8126 20.077 25.8803 20.0994L25.7144 20.87C26.6002 20.8927 27.1728 21.6724 27.9689 21.9065C27.9908 22.2315 27.6988 22.522 27.5304 22.8121C26.8237 22.601 26.2847 21.9968 25.477 22.0415C25.4658 21.7387 25.6465 21.3951 25.5783 21.0713C24.6712 21.3398 24.063 20.5014 23.3908 19.9984C23.3715 18.3526 21.6298 17.2728 21.5379 15.7311C21.5201 15.4236 21.5672 15.0956 21.7081 14.7428C22.2805 13.4263 22.1007 11.7169 21.4731 10.4893C21.2822 10.1661 20.9445 9.91121 20.6295 9.72119C21.0902 10.6927 21.6518 11.8406 21.3715 13.0346C21.339 13.9566 20.792 14.8423 20.7858 15.7311C20.7837 16.0481 20.8518 16.365 21.035 16.685C21.7646 17.9924 23.0774 19.2301 22.5838 20.8698C22.448 21.3734 22.044 21.7628 21.943 22.2753C22.7967 22.9787 23.6039 23.7714 24.7366 23.8159C25.1402 23.5595 24.916 22.4223 25.7463 22.9469L26.9586 23.5502C26.8704 23.8729 26.5986 24.1622 26.3525 24.3846C25.8925 24.1619 25.4439 23.8949 24.8703 23.9166C24.7013 24.0952 24.5558 24.2956 24.5686 24.5517C24.9722 24.6178 25.3425 24.7872 25.6795 25.022C25.5229 25.3574 25.2179 25.5675 24.9374 25.8244L23.9971 25.4899C23.8401 25.7135 23.5139 25.9482 23.6284 26.1936C23.8407 26.2839 24.0759 26.4061 24.232 26.5627C23.8171 27.0091 23.2909 27.2963 22.7847 27.5992C22.3486 26.1813 20.9117 25.1873 21.0351 23.5475L20.9684 23.4811C20.6307 23.859 20.7435 24.4629 20.7653 24.9532C21.1695 25.9801 22.1336 26.7734 22.2798 27.8996C22.111 28.1896 21.7305 28.2474 21.4383 28.37C21.4724 26.3395 18.376 24.7994 20.3617 22.7455C21.0238 21.7397 22.1334 20.7799 21.7403 19.3952C21.3367 18.0582 19.9091 17.2298 19.9217 15.7311L19.924 15.6142C20.249 14.0513 21.2368 12.3882 20.4288 10.7255C20.2035 10.0568 19.7004 9.29682 19.0161 9.01731C20.0364 10.179 20.4408 12.0745 19.8572 13.6378C19.5629 14.2597 19.1579 15.0004 19.1174 15.7313H19.1149C19.0932 16.1131 19.1714 16.4928 19.4192 16.8527C20.1937 18.1032 21.5394 19.4767 20.7654 21.1062C19.8904 22.4115 18.3646 23.7392 19.2168 25.4584C19.8337 26.4851 20.7883 27.5096 20.5306 28.7718L19.5211 29.1063C20.1942 26.7521 16.8953 25.3688 18.2764 23.0137C19.1289 21.7527 20.6538 20.5694 19.7906 18.8957C19.2745 17.8586 18.2083 17.2448 18.2418 15.949L18.2786 15.7312C18.626 13.8933 20.0307 12.1534 19.0484 10.1893C18.7903 9.60923 18.2747 9.01802 17.7023 8.68293L17.6678 8.71724C18.8126 9.82212 19.1609 11.6401 18.5436 13.1014C18.2556 13.9588 17.6235 14.8129 17.4951 15.7315C17.4339 16.1649 17.4854 16.6138 17.737 17.0867C18.4661 18.2354 19.7449 19.4538 18.947 20.9388C18.1067 22.1653 16.7039 23.3588 17.2642 24.9539C17.8815 26.3494 19.17 27.6789 18.4744 29.4092L17.4324 29.6433C18.2623 27.957 17.018 26.2836 16.289 24.8212C15.4022 22.7228 18.1941 21.718 18.239 19.7997C18.2284 18.5614 16.9051 17.8583 16.6256 16.7201C16.0528 16.2394 15.4592 16.9112 14.7745 16.7865C14.2692 16.8875 13.4928 16.0943 13.1911 16.9542C12.8319 18.2147 11.1948 19.1413 11.9141 20.6364C12.5988 21.965 14.2463 22.9365 13.6959 24.6559C13.2032 26.2618 11.5754 27.791 12.585 29.6433C12.1702 29.5096 11.3959 29.7656 11.4071 29.1064C10.7679 26.8634 13.4936 25.5564 12.6517 23.3145C12.2599 21.9412 10.4748 21.1827 10.8678 19.5309C11.1584 18.1713 12.692 17.2209 12.4769 15.7315C12.4578 15.6006 12.4268 15.4717 12.3845 15.3463C11.8121 13.7392 10.6442 12.1316 11.3403 10.2559C11.5314 9.72029 11.9131 9.26281 12.2486 8.78396C11.1378 9.37517 10.5775 10.6255 10.6005 11.8975C10.5521 13.2808 11.5792 14.4657 11.7253 15.7315C11.7828 16.2424 11.6987 16.7656 11.3403 17.3205C10.6117 18.304 9.65874 19.341 10.0956 20.6361C10.511 21.9425 12.1488 22.7339 12.048 24.2522C12.0368 26.0484 9.9388 27.1667 10.5334 29.1755L9.48922 28.8385C9.07463 27.0534 10.9815 26.1402 11.0034 24.4886C11.2732 22.5894 8.83823 21.8848 8.98437 20.0333C8.97388 18.6266 10.2186 17.7357 10.7683 16.5525C10.8625 16.2646 10.8939 15.9926 10.8813 15.7316C10.814 14.4234 9.62899 13.4007 9.82565 11.9297C9.89181 10.8472 10.262 9.89827 10.9691 9.08423C9.99357 9.47399 9.59057 10.5911 9.3211 11.5287C8.85347 13.0323 9.96976 14.3847 10.0816 15.7316C10.1312 16.3266 9.98519 16.918 9.42255 17.5226C8.61435 18.47 7.79475 19.6656 8.37826 20.939C8.99617 22.3441 10.9374 23.4377 10.0954 25.1901C9.63605 26.2952 8.53609 27.1316 8.58127 28.4371C8.28982 28.3143 7.98747 28.1919 7.73979 27.9692C7.73979 26.3067 10.1172 25.2682 8.98447 23.516C8.88412 23.8617 8.86254 24.3316 8.78398 24.7221C8.39087 25.7382 7.54979 26.5515 7.23504 27.602C6.70871 27.3999 6.15837 26.9753 5.72059 26.5289L6.32699 26.1598C6.25963 25.9361 6.08042 25.7466 5.9236 25.5569C5.52988 25.5019 5.2713 25.7589 4.94657 25.8596C4.66611 25.6135 4.39543 25.3903 4.17184 25.0889C4.37314 24.5187 5.94598 24.9902 5.14917 24.0525C4.61124 23.718 4.0713 24.1959 3.60023 24.4191L2.96165 23.6167C3.51138 23.2822 4.0597 22.8123 4.74346 22.9471C4.91198 23.249 4.92368 23.6928 5.24831 23.8504C6.40404 23.8282 7.22293 22.9584 8.10889 22.2774C7.49139 21.3635 6.98876 20.1016 7.53728 18.9961C7.97668 17.8885 9.12193 16.9555 9.17376 15.7309C9.18556 15.4523 9.14189 15.1591 9.01936 14.8435C8.41386 13.292 8.20016 11.195 9.3559 9.82172C8.7275 9.98966 8.35699 10.7689 8.14349 11.3604C7.44874 12.8754 8.32744 14.279 8.35779 15.7308C8.36193 15.9921 8.34065 16.2537 8.27701 16.5174C7.6822 17.7115 6.71849 18.7591 6.56197 20.1332C5.87741 20.5676 5.31537 21.3273 4.33996 21.0709C4.30567 21.3274 4.38423 21.7182 4.47369 22.0088C3.70017 21.9764 3.17273 22.5436 2.52155 22.8114C2.17453 22.7006 2.08427 22.2545 1.94994 21.9424C2.71226 21.6862 3.26219 20.926 4.13746 20.9379C4.23891 20.6575 4.08058 20.4006 4.0359 20.133C2.94713 19.6523 1.2213 22.5095 1.07618 20.0323C2.16414 19.9654 2.85929 18.9606 3.93687 18.8605L3.96904 18.0581C2.74624 17.9353 1.95962 19.1857 0.737325 19.0625L0.467758 17.9917C1.88166 18.0795 2.72405 16.8191 4.07059 16.7512C4.2495 16.5172 4.27108 16.1713 4.30557 15.8479C2.8358 15.6573 1.8273 17.2778 0.267269 16.7857C0.267269 16.7857 0.213515 16.1113 0.184369 15.7309H0.18649C0.180585 15.6468 0.173691 15.5627 0.165814 15.4787C1.55683 16.0156 2.77902 15.0216 3.96904 14.5087C4.27169 14.4186 4.74366 14.5748 4.8793 14.2402C4.8677 13.9835 5.33826 13.6833 4.94647 13.5042C3.20672 13.2693 2.05099 15.3568 0.267066 14.4077L0.13324 14.1392C0.504062 9.09516 3.36354 4.21878 8.10869 1.81911C10.0304 0.726575 12.4179 0.169773 14.8257 0.149909C17.7313 0.125831 20.6676 0.884188 22.8518 2.42227C24.9728 3.71646 27.0016 5.84946 28.1026 8.01477C29.1558 9.91201 29.6404 12.0408 29.7852 14.307C27.9449 15.6903 26.7103 13.0039 24.8363 13.6052C24.9372 13.8958 24.9932 14.1967 25.2075 14.4422C26.8683 14.4304 28.012 16.1605 29.7506 15.4786L29.7524 15.731ZM8.61324 9.51904C7.44622 8.75998 5.96676 9.47479 4.8792 9.88823C4.77825 8.87214 4.36346 7.94645 3.49858 7.27688C3.41467 7.23524 3.29869 7.14796 3.19421 7.14144C3.13169 7.13753 3.07218 7.16271 3.026 7.24217C3.418 9.64133 1.8503 11.3153 0.739344 13.1352C1.10926 13.4359 1.70356 13.3911 2.15224 13.3026C3.32996 12.8342 4.4518 12.0186 5.85411 12.2981C6.2689 11.5951 6.96557 10.9141 7.53688 10.3561C7.88602 10.0556 8.36545 9.86486 8.61324 9.51904ZM12.1814 11.0257C12.1589 11.1702 12.1926 11.4278 12.4165 11.3282C12.7648 10.8483 13.3815 11.2281 13.7627 11.2618V11.1267C13.5535 10.8 13.1233 10.636 12.6862 10.6522C12.5854 10.6558 12.4829 10.6704 12.3843 10.6932C12.2382 10.7255 12.1363 10.8586 12.1814 11.0257ZM17.6673 9.58806C17.3539 8.89592 16.6359 8.61581 15.9845 8.44837C15.665 8.40924 15.3335 8.38286 15.0048 8.37965C14.9431 8.37905 14.8816 8.37824 14.8202 8.37965C13.9007 8.39811 13.022 8.63297 12.4851 9.38601C12.4081 9.5986 12.0693 9.89716 12.3839 10.0877C13.0907 10.0428 13.8973 9.95465 14.3685 10.558C14.3685 11.0943 14.7166 11.8076 14.1334 12.0644C13.6503 11.6193 13.078 12.2539 12.5523 11.8967C12.3051 11.7514 12.1487 11.9209 12.0475 12.133C11.9013 13.5165 12.6297 15.0435 13.9307 15.8133C14.4581 16.0025 15.1669 16.1824 15.7173 15.914C17.0409 15.3008 17.5892 13.8955 17.8359 12.6007C17.8028 12.3543 17.8144 11.8742 17.467 11.8624C17.0746 12.1094 16.5023 11.9635 16.0865 11.8624C15.8405 11.9414 15.8292 12.2993 15.5493 12.3672L15.3788 12.2318C15.2327 11.6188 15.1426 10.7481 15.7154 10.3239C16.3554 10.0672 17.1071 9.95515 17.7688 10.1566C17.8924 9.94451 17.7018 9.77767 17.6673 9.58806ZM16.9919 10.6884C16.9474 10.6896 16.9043 10.6918 16.8603 10.6932C16.6253 10.8492 15.9402 10.7371 16.1876 11.2618C16.6141 10.9262 17.2087 11.1614 17.635 11.3282C17.7925 11.2504 17.7585 11.0941 17.7687 10.9593C17.6318 10.706 17.3048 10.6823 16.9919 10.6884ZM21.8763 5.96965C21.0459 5.92581 20.3506 6.39483 19.5875 6.60691C19.5212 5.96102 20.0143 5.27891 20.1269 4.63051C18.8933 4.70947 17.9161 5.44826 16.8954 6.03837C16.6585 5.46936 16.4226 4.89991 16.1878 4.33004L17.5342 3.05752L17.5686 2.88978L15.75 2.78905C15.4369 2.24309 15.3134 1.58545 14.9432 1.08323C14.6403 1.65247 14.4368 2.25482 14.1341 2.82336L12.3178 2.92439V3.05752L13.6963 4.29573C13.5278 4.93219 13.3712 5.62373 12.9564 6.10468C12.1488 5.62342 11.3525 5.09973 10.4671 4.76545C10.254 4.69713 9.9502 4.58587 9.75949 4.73114C10.0396 5.34523 10.4318 6.00567 10.3658 6.67584C9.99528 6.60802 9.70413 6.37175 9.3561 6.27243C8.93989 6.15936 8.44613 5.93875 8.04233 6.07298C8.7156 7.00981 9.26513 7.99049 9.45523 9.11804C11.6887 8.04557 14.2935 7.45576 16.9972 7.91414C18.2647 8.11469 19.43 8.62836 20.5634 9.05132C20.6076 7.8691 21.3591 6.91912 21.8763 5.96965ZM25.7119 12.399C26.8553 12.6999 28.0023 13.9393 29.2131 13.1352C28.1585 11.3945 26.589 9.78691 27.0256 7.51064C27.0713 7.35523 26.9702 7.19792 26.8251 7.17585C26.141 7.45395 25.6112 8.12442 25.3405 8.78335C25.2291 9.17322 25.1634 9.58746 25.0066 9.95495C24.187 9.53058 23.3126 9.11964 22.3142 9.21886C21.954 9.26351 21.438 9.28699 21.3715 9.65478C22.5044 10.2571 23.4362 11.2623 24.1306 12.3328C24.6143 12.2545 25.2072 12.3214 25.7119 12.399ZM13.7304 13.9723L13.7627 14.174C14.2011 14.4644 14.3359 14.9568 14.9429 14.9122C15.4811 14.9439 15.8849 14.4423 16.1529 14.0408C15.4248 13.9406 14.5383 14.0955 13.7304 13.9723ZM14.3364 13.0688C14.3583 13.1581 14.2809 13.2921 14.4032 13.3373C14.7623 13.2597 15.4127 13.5273 15.6132 13.1031C15.4731 12.9471 15.2447 12.8763 15.0048 12.8763C14.765 12.8763 14.5163 12.9457 14.3364 13.0688Z" fill="#106E33"/>
<path id="Vector_3" opacity="0.99" d="M13.731 12.6815H16.191V13.6869H13.731V12.6815Z" fill="white"/>
<path id="Vector_4" d="M14.1854 13.2191C14.5032 13.294 14.5819 13.406 14.833 13.4374C15.1003 13.4327 15.0617 13.3787 15.5274 13.2188C15.5581 13.2081 15.6001 13.1409 15.548 13.0894C15.2587 12.8039 15.0587 13.008 14.8776 13.0134C14.6369 13.0159 14.4114 12.8085 14.1764 13.0782C14.1363 13.1329 14.1155 13.1867 14.1854 13.2191Z" fill="#106E33"/>
<g id="Group">
<path id="Vector_5" d="M25.8069 29.7149V28.2829H25.2928V27.9914H26.6695V28.2829H26.1566V29.7149H25.8069ZM26.8918 29.7149V27.9913H27.4153L27.7297 29.167L28.0405 27.9913H28.5652V29.7149H28.2402V28.3582L27.8963 29.7149H27.5594L27.2168 28.3582V29.7149H26.8918Z" fill="#106E33"/>
</g>
</g>
<defs>
<clipPath id="clip0_72_353">
<rect width="30" height="30" fill="white"/>
</clipPath>
</defs>
</svg>
